<svg width="177" height="201" viewBox="0 0 177 201" fill="none" xmlns="http://www.w3.org/2000/svg">
<path d="M0 150.354V49.8543L84.7606 0L177 49.8543V150.354L84.7606 201L0 150.354Z" fill="#3F57DB"/>
<path d="M108.516 50.7063C102.36 71.7391 84.5759 71.4398 76.4535 68.6611C73.3755 89.1809 78.5909 104.143 81.5834 109.059C102.103 96.7476 108.088 65.0274 108.516 50.7063Z" fill="white"/>
<path d="M98.8959 109.059C100.948 133.683 92.056 153.946 87.3535 161C120.698 153.305 135.447 107.777 138.653 85.9746C130.445 111.111 108.728 111.838 98.8959 109.059Z" fill="white"/>
<path d="M65.4986 86.5649C50.0012 87.508 36.8682 76.0525 32.2389 70.2069C37.825 106.75 60.4558 130.895 71.0729 138.4C62.6662 127.501 63.8539 99.3018 65.4986 86.5649Z" fill="white"/>
<circle cx="50.6122" cy="67.2632" r="5.77119" transform="rotate(-11.0772 50.6122 67.2632)" fill="white"/>
<circle cx="89.278" cy="53.2712" r="5.77119" fill="white"/>
<circle cx="118.775" cy="94.3106" r="5.77119" fill="white"/>
</svg>
