<svg width="24" height="24" viewBox="0 0 24 24" fill="none" xmlns="http://www.w3.org/2000/svg">
<path d="M10.07 1.43639C10.6105 1.03484 11.294 0.814697 12 0.814697C12.706 0.814697 13.3895 1.03484 13.93 1.43639L22.93 8.12677C23.265 8.37564 23.5344 8.68628 23.7192 9.03691C23.9041 9.38754 23.9999 9.76968 24 10.1565V21.2688C24 21.7378 23.7893 22.1875 23.4142 22.5191C23.0391 22.8506 22.5304 23.0369 22 23.0369H16.5C15.9696 23.0369 15.4609 22.8506 15.0858 22.5191C14.7107 22.1875 14.5 21.7378 14.5 21.2688V15.0806H9.5V21.2688C9.5 21.7378 9.28929 22.1875 8.91421 22.5191C8.53914 22.8506 8.03043 23.0369 7.5 23.0369H2C1.46957 23.0369 0.960859 22.8506 0.585786 22.5191C0.210714 22.1875 0 21.7378 0 21.2688V10.1556C0.00011066 9.7688 0.0959458 9.38666 0.280785 9.03603C0.465624 8.68539 0.734993 8.37475 1.07 8.12589L10.07 1.43639Z" fill="#667C8A"/>
</svg>
