<svg width="65" height="65" viewBox="0 0 65 65" fill="none" xmlns="http://www.w3.org/2000/svg">
<path d="M39.8503 16.3977C37.5897 23.1993 31.0589 23.1025 28.0761 22.204C26.9458 28.8397 28.8611 33.6783 29.96 35.2681C37.4955 31.2866 39.6934 21.0289 39.8503 16.3977Z" fill="white"/>
<path d="M36.3177 35.268C37.0713 43.2309 33.8059 49.7837 32.079 52.0648C44.3242 49.5764 49.7403 34.8533 50.9178 27.8028C47.9036 35.9316 39.9285 36.1666 36.3177 35.268Z" fill="white"/>
<path d="M24.0531 27.9937C18.362 28.2987 13.5391 24.5941 11.8391 22.7038C13.8905 34.5212 22.2012 42.3294 26.1002 44.7564C23.0129 41.2316 23.4491 32.1126 24.0531 27.9937Z" fill="white"/>
<ellipse rx="2.11056" ry="1.87625" transform="matrix(0.985462 -0.169896 0.217026 0.976166 18.5863 21.7519)" fill="white"/>
<ellipse cx="32.7857" cy="17.2272" rx="2.11936" ry="1.8663" fill="white"/>
<ellipse cx="43.618" cy="30.4987" rx="2.11936" ry="1.8663" fill="white"/>
</svg>